<svg xmlns="http://www.w3.org/2000/svg" width="208.61" height="35" viewBox="0 0 208.61 35"><rect class="svg__rect" x="0" y="0" width="71.59" height="35" fill="#31C4F3"/><rect class="svg__rect" x="69.59" y="0" width="139.02" height="35" fill="#389AD5"/><path class="svg__text" d="M17.33 22L14.22 22L14.22 13.47L17.14 13.47Q18.59 13.47 19.34 14.05Q20.10 14.63 20.10 15.78L20.10 15.78Q20.10 16.36 19.78 16.83Q19.47 17.30 18.86 17.56L18.86 17.56Q19.55 17.75 19.93 18.26Q20.31 18.78 20.31 19.51L20.31 19.51Q20.31 20.71 19.53 21.36Q18.76 22 17.33 22L17.33 22ZM15.70 18.15L15.70 20.82L17.35 20.82Q18.04 20.82 18.44 20.47Q18.83 20.13 18.83 19.51L18.83 19.51Q18.83 18.18 17.47 18.15L17.47 18.15L15.70 18.15ZM15.70 14.66L15.70 17.06L17.15 17.06Q17.84 17.06 18.23 16.75Q18.62 16.43 18.62 15.86L18.62 15.86Q18.62 15.23 18.26 14.95Q17.90 14.66 17.14 14.66L17.14 14.66L15.70 14.66ZM24.64 19.16L24.64 19.16L24.64 13.47L26.12 13.47L26.12 19.18Q26.12 20.03 26.55 20.48Q26.98 20.93 27.83 20.93L27.83 20.93Q29.54 20.93 29.54 19.13L29.54 19.13L29.54 13.47L31.02 13.47L31.02 19.17Q31.02 20.53 30.15 21.32Q29.28 22.12 27.83 22.12L27.83 22.12Q26.36 22.12 25.50 21.33Q24.64 20.55 24.64 19.16ZM37.15 22L35.67 22L35.67 13.47L37.15 13.47L37.15 22ZM47.32 22L41.96 22L41.96 13.47L43.44 13.47L43.44 20.82L47.32 20.82L47.32 22ZM53.90 22L51.44 22L51.44 13.47L53.96 13.47Q55.09 13.47 55.97 13.97Q56.84 14.48 57.32 15.40Q57.81 16.33 57.81 17.52L57.81 17.52L57.81 17.95Q57.81 19.16 57.32 20.08Q56.84 21.00 55.94 21.50Q55.05 22 53.90 22L53.90 22ZM52.92 14.66L52.92 20.82L53.89 20.82Q55.06 20.82 55.68 20.09Q56.31 19.36 56.32 17.99L56.32 17.99L56.32 17.52Q56.32 16.13 55.71 15.40Q55.11 14.66 53.96 14.66L53.96 14.66L52.92 14.66Z" fill="#FFFFFF"/><path class="svg__text" d="M85.86 22L83.13 13.60L85.58 13.60L87.27 18.96L89.05 13.60L91.23 13.60L92.92 19.01L94.69 13.60L96.96 13.60L94.23 22L91.69 22L90.08 16.89L88.40 22L85.86 22ZM103.85 22L101.47 22L101.47 13.60L103.85 13.60L103.85 22ZM110.81 15.48L108.23 15.48L108.23 13.60L115.75 13.60L115.75 15.48L113.19 15.48L113.19 22L110.81 22L110.81 15.48ZM122.50 22L120.12 22L120.12 13.60L122.50 13.60L122.50 16.76L125.74 16.76L125.74 13.60L128.12 13.60L128.12 22L125.74 22L125.74 18.72L122.50 18.72L122.50 22ZM142.63 22L140.25 22L140.25 13.60L144.09 13.60Q145.24 13.60 146.07 13.98Q146.91 14.35 147.37 15.06Q147.83 15.76 147.83 16.71L147.83 16.71Q147.83 17.62 147.40 18.30Q146.97 18.98 146.18 19.36L146.18 19.36L147.99 22L145.45 22L143.92 19.77L142.63 19.77L142.63 22ZM142.63 15.47L142.63 17.93L143.95 17.93Q144.68 17.93 145.05 17.61Q145.42 17.29 145.42 16.71L145.42 16.71Q145.42 16.12 145.05 15.79Q144.68 15.47 143.95 15.47L143.95 15.47L142.63 15.47ZM159.36 22L152.61 22L152.61 13.60L159.21 13.60L159.21 15.44L154.97 15.44L154.97 16.85L158.70 16.85L158.70 18.63L154.97 18.63L154.97 20.17L159.36 20.17L159.36 22ZM165.58 22L163.15 22L166.86 13.60L169.21 13.60L172.92 22L170.46 22L169.79 20.37L166.24 20.37L165.58 22ZM168.02 15.93L166.93 18.61L169.10 18.61L168.02 15.93ZM176.65 17.80L176.65 17.80Q176.65 16.54 177.25 15.54Q177.84 14.55 178.90 13.99Q179.95 13.43 181.27 13.43L181.27 13.43Q182.42 13.43 183.34 13.84Q184.27 14.25 184.88 15.02L184.88 15.02L183.37 16.39Q182.56 15.40 181.39 15.40L181.39 15.40Q180.70 15.40 180.17 15.70Q179.64 16 179.34 16.54Q179.05 17.09 179.05 17.80L179.05 17.80Q179.05 18.51 179.34 19.05Q179.64 19.60 180.17 19.90Q180.70 20.20 181.39 20.20L181.39 20.20Q182.56 20.20 183.37 19.22L183.37 19.22L184.88 20.58Q184.27 21.35 183.35 21.76Q182.42 22.17 181.27 22.17L181.27 22.17Q179.95 22.17 178.90 21.61Q177.84 21.05 177.25 20.05Q176.65 19.06 176.65 17.80ZM191.21 15.48L188.63 15.48L188.63 13.60L196.15 13.60L196.15 15.48L193.58 15.48L193.58 22L191.21 22L191.21 15.48Z" fill="#FFFFFF" x="82.59"/></svg>